<svg xmlns:xlink="http://www.w3.org/1999/xlink" class="img-fluid" id="outputsvg" xmlns="http://www.w3.org/2000/svg" style="transform: none; transform-origin: 50% 50%; cursor: move; max-height: 360.58px;" width="1608" height="744" viewBox="0 0 16080 7440"><g id="l61Twe2AaEMhombL7fozEj1" fill="#FFFFFF" style="transform: none;"><g style="transform: none;" fill="#FFFFFF"><path id="p1DBuNVgVt" d="M2875 5600 c-49 -4 -133 -18 -185 -29 -52 -12 -108 -25 -125 -28 -53 -11 -237 -83 -341 -133 -266 -129 -510 -340 -680 -590 -57 -83 -154 -245 -154 -256 0 -4 -11 -30 -24 -58 -57 -120 -113 -321 -138 -491 -17 -116 -17 -414 0 -530 60 -414 248 -785 545 -1078 219 -215 560 -401 847 -461 47 -10 99 -22 115 -28 17 -5 105 -14 197 -20 174 -12 469 0 553 22 22 6 83 21 135 34 284 70 545 215 763 425 53 51 70 85 48 93 -6 2 -102 94 -214 205 -113 112 -210 203 -217 203 -7 0 -40 -24 -74 -53 -73 -64 -204 -156 -273 -191 -90 -45 -226 -86 -348 -104 -512 -74 -989 133 -1243 540 -66 107 -110 212 -148 355 -34 130 -35 139 -35 321 0 154 4 202 21 272 45 186 87 290 167 415 149 231 362 392 643 488 104 36 355 71 445 63 219 -20 309 -39 455 -99 150 -61 354 -220 434 -338 67 -98 176 -364 161 -389 -4 -6 -209 -10 -554 -10 -331 0 -551 -4 -557 -9 -5 -6 -7 -117 -4 -283 l5 -273 867 -3 c819 -2 867 -1 872 15 15 51 38 286 33 348 -26 350 -76 555 -191 783 -95 189 -224 349 -389 485 -244 199 -464 299 -811 368 -113 22 -450 33 -601 19z" fill="#FFFFFF"></path><path id="p4zdr4k9r" d="M9195 5600 c-44 -4 -116 -18 -160 -30 -44 -12 -95 -25 -112 -30 -60 -15 -263 -122 -341 -181 -154 -115 -268 -253 -357 -433 -111 -224 -154 -467 -131 -741 25 -306 152 -584 360 -791 181 -181 364 -274 676 -346 60 -14 442 -13 503 1 26 6 68 15 93 21 160 34 408 161 518 265 20 19 45 40 54 47 25 18 114 127 160 196 206 305 270 720 171 1102 -120 466 -472 799 -956 904 -85 19 -362 28 -478 16z m375 -608 c175 -62 287 -153 372 -302 116 -203 116 -539 0 -740 -86 -148 -200 -240 -373 -301 -93 -33 -286 -33 -378 -1 -257 89 -425 297 -453 561 -10 100 -4 247 13 316 29 112 100 234 186 316 84 82 168 128 295 164 74 21 263 14 338 -13z" fill="#FFFFFF"></path><path id="p9EIV4hba" d="M11805 5601 c-190 -21 -360 -104 -480 -234 -79 -86 -96 -109 -138 -192 -66 -133 -98 -250 -116 -435 -13 -125 -15 -1598 -2 -1618 6 -11 73 -13 316 -13 169 0 312 4 316 8 5 5 10 359 11 788 3 768 4 781 25 836 75 198 227 288 463 277 86 -4 103 -9 180 -46 47 -23 106 -59 132 -82 96 -83 177 -242 209 -410 9 -46 15 -256 18 -718 l6 -653 318 -2 317 -2 0 1218 0 1217 -300 0 -300 0 0 -149 c0 -118 -3 -151 -15 -161 -20 -17 -48 -5 -69 31 -35 59 -164 177 -248 226 -46 27 -127 64 -180 81 -87 29 -112 33 -245 36 -81 3 -179 1 -218 -3z" fill="#FFFFFF"></path><path id="pF6RdLvc1" d="M5358 3763 c-2 -978 -1 -1784 1 -1791 2 -10 71 -12 320 -10 l316 3 3 510 c2 416 -1 539 -14 665 -28 265 -28 265 -11 278 20 17 47 1 72 -41 33 -55 162 -172 246 -222 165 -98 328 -133 559 -120 69 4 143 13 165 21 22 7 48 14 57 14 52 0 267 116 321 172 48 50 123 158 157 227 44 86 58 127 92 256 l23 90 0 860 0 860 -295 3 c-162 1 -305 0 -317 -3 l-22 -5 -3 -778 c-3 -763 -4 -778 -25 -833 -33 -89 -50 -116 -108 -174 -95 -95 -164 -120 -330 -120 l-120 1 -85 41 c-142 69 -237 176 -301 340 -54 140 -58 205 -61 898 l-3 630 -317 3 -318 2 -2 -1777z" fill="#FFFFFF"></path><path id="p6eHddJ9l" d="M13950 3750 l0 -1790 320 0 320 0 -2 1788 -3 1787 -317 3 -318 2 0 -1790z" fill="#FFFFFF"></path></g></g></svg>